<svg width="90" height="103" viewBox="0 0 90 103" fill="none" xmlns="http://www.w3.org/2000/svg">
<path d="M89.0941 0.523438H0.515137L8.33093 92.213L44.8046 103L81.2783 92.213L89.0941 0.523438Z" fill="#0277BD"/>
<path d="M44.8046 8.61328V94.6343L73.9836 86.01L80.4967 8.61328H44.8046Z" fill="#039BE5"/>
<path d="M68.5177 22.0977H44.8046V32.8847H57.5652L56.794 43.6717H44.8046V54.4587H56.2626L55.4914 66.5941L44.8046 70.3641V81.7013L65.381 74.6843L67.2151 43.6717L68.5177 22.0977Z" fill="white"/>
<path d="M44.8047 22.0977V32.8847H21.6231L20.8389 22.0977H44.8047ZM32.8153 43.6717L33.3467 54.4587H44.8047V43.6717H32.8153ZM33.8652 59.8522H23.4441L24.2257 74.6843L44.8047 81.7013V70.3641L34.1179 66.5941L33.8652 59.8522Z" fill="#EEEEEE"/>
</svg>
