<svg width="71" height="105" viewBox="0 0 71 105" fill="none" xmlns="http://www.w3.org/2000/svg">
<g clip-path="url(#clip0)">
<path d="M18.3621 105C28.0202 105 35.8586 97.16 35.8586 87.5V70H18.3621C8.70406 70 0.865631 77.84 0.865631 87.5C0.865631 97.16 8.70406 105 18.3621 105Z" fill="#0ACF83"/>
<path d="M0.865631 52.5C0.865631 42.84 8.70406 35 18.3621 35H35.8586V70H18.3621C8.70406 70 0.865631 62.16 0.865631 52.5Z" fill="#A259FF"/>
<path d="M0.867249 17.5C0.867249 7.84 8.70568 0 18.3638 0H35.8603V35H18.3638C8.70568 35 0.867249 27.16 0.867249 17.5Z" fill="#F24E1E"/>
<path d="M35.8586 0H53.3551C63.0132 0 70.8517 7.84 70.8517 17.5C70.8517 27.16 63.0132 35 53.3551 35H35.8586V0Z" fill="#FF7262"/>
<path d="M70.8517 52.5C70.8517 62.16 63.0132 70 53.3551 70C43.6971 70 35.8586 62.16 35.8586 52.5C35.8586 42.84 43.6971 35 53.3551 35C63.0132 35 70.8517 42.84 70.8517 52.5Z" fill="#1ABCFE"/>
</g>
<defs>
<clipPath id="clip0">
<rect width="70" height="105" fill="white" transform="translate(0.858643)"/>
</clipPath>
</defs>
</svg>
