<svg width="107" height="106" viewBox="0 0 107 106" fill="none" xmlns="http://www.w3.org/2000/svg">
<path d="M53.8587 0C24.7087 0 0.858704 23.85 0.858704 53C0.858704 82.15 24.7087 106 53.8587 106C83.0087 106 106.859 82.15 106.859 53C106.859 23.85 83.0087 0 53.8587 0ZM24.3301 82.5286C16.3801 74.5786 12.2158 63.9786 12.2158 53.7571L53.4801 94.6429C42.8801 94.2643 32.2801 90.4786 24.3301 82.5286ZM62.9444 93.5071L13.3516 43.9143C17.5158 25.3643 34.173 11.3571 53.8587 11.3571C67.8658 11.3571 79.9801 18.1714 87.5516 28.3929L81.873 33.3143C75.4373 24.6071 65.2159 18.9286 53.8587 18.9286C39.0944 18.9286 26.6016 28.3929 21.6801 41.6429L65.2159 85.1786C76.1944 81.3929 84.523 71.9286 87.173 60.5714H69.0016V53H95.5016C95.5016 72.6857 81.4944 89.3429 62.9444 93.5071Z" fill="#663399"/>
</svg>
