<svg width="91" height="104" viewBox="0 0 91 104" fill="none" xmlns="http://www.w3.org/2000/svg">
<path d="M8.23744 92.9992L0 0.523438H90.5151L82.2688 92.9846L45.2019 103.27L8.23744 92.9992Z" fill="#E44D26"/>
<path d="M45.0129 94.9525L75.5115 86.6635L82.6868 7.8623H45.0129V94.9525Z" fill="#F16529"/>
<path d="M45.0129 41.9711H30.2958L29.2795 30.4079H45.0129V19.1157H44.9746H17.1245L17.3907 22.1453L20.1242 53.2633H45.0129V41.9711ZM45.0129 71.7681L44.9648 71.7816L32.666 68.337L31.8797 59.2021H25.9035H20.7941L22.3411 77.1862L44.9623 83.6995L45.0129 83.6849V71.7681Z" fill="#EBEBEB"/>
<path d="M45.0129 42.1285V53.5541H58.8592L57.5538 68.3728L45.0129 71.8121V83.6995L68.0643 77.2075L68.2336 75.2774L70.8758 45.1964L71.1503 42.1285H68.1202H45.0129ZM45.0129 19.1157V26.0314V30.2234V30.2507H72.3397H72.3762L72.6034 27.748L73.1198 22.1029L73.3906 19.1157H45.0129Z" fill="white"/>
</svg>
