<svg width="103" height="104" viewBox="0 0 103 104" fill="none" xmlns="http://www.w3.org/2000/svg">
<path d="M0.0941162 0.523438H102.709V103.139H0.0941162V0.523438Z" fill="#F0DB4F"/>
<path d="M94.3114 78.6651C93.5597 73.9837 90.5071 70.0515 81.4648 66.3849C78.3236 64.9414 74.8218 63.9077 73.7783 61.5273C73.4078 60.142 73.3586 59.3616 73.5931 58.523C74.266 55.8016 77.5146 54.9532 80.0893 55.7335C81.7476 56.2893 83.3173 57.5672 84.2641 59.6059C88.6922 56.7385 88.6832 56.7574 91.7751 54.7868C90.6431 53.0318 90.039 52.2219 89.298 51.471C86.6347 48.4963 83.0058 46.9642 77.2023 47.0815L74.1792 47.4725C71.2823 48.2045 68.5215 49.725 66.9025 51.7637C62.0449 57.2754 63.4302 66.9218 69.3412 70.8917C75.1645 75.2624 83.719 76.2567 84.8117 80.3438C85.8748 85.3474 81.1344 86.9672 76.4227 86.3917C72.9504 85.6695 71.0191 83.9047 68.9313 80.6955C65.0885 82.9194 65.0885 82.9194 61.1375 85.1916C62.0744 87.2401 63.0589 88.1672 64.6295 89.9419C72.0626 97.4816 90.6636 97.1111 93.9999 85.6991C94.1351 85.3072 95.0335 82.694 94.3114 78.6651ZM55.879 47.6856H46.281L46.2416 72.5C46.2416 77.7773 46.5146 82.6153 45.6563 84.0981C44.2522 87.0147 40.6135 86.6532 38.9552 86.0876C37.2674 85.258 36.4091 84.0785 35.4148 82.4112C35.1419 81.9325 34.9369 81.5619 34.8681 81.5333L27.0644 86.3122C28.362 88.9755 30.2736 91.287 32.7221 92.7888C36.3796 94.984 41.2955 95.6569 46.4367 94.4766C49.7828 93.5019 52.6698 91.483 54.1814 88.4098C56.3667 84.3809 55.8979 79.5045 55.8782 74.1107C55.9274 65.3111 55.879 56.5131 55.879 47.6856Z" fill="#323330"/>
</svg>
