<svg width="114" height="102" viewBox="0 0 114 102" fill="none" xmlns="http://www.w3.org/2000/svg">
<path d="M57.3041 60.8295C62.888 60.8295 67.4147 56.3028 67.4147 50.7189C67.4147 45.135 62.888 40.6084 57.3041 40.6084C51.7202 40.6084 47.1936 45.135 47.1936 50.7189C47.1936 56.3028 51.7202 60.8295 57.3041 60.8295Z" fill="#00D8FF"/>
<path d="M57.3042 73.8805C43.1051 73.8805 30.6986 72.2089 21.4138 69.0267C15.3918 66.9723 10.2761 64.2332 6.63066 61.1115C2.76368 57.8084 0.709351 54.2033 0.709351 50.719C0.709351 44.0323 8.04049 37.4867 20.3463 33.2169C30.4166 29.7124 43.5482 27.7588 57.284 27.7588C70.7782 27.7588 83.7285 29.652 93.7383 33.1162C99.5992 35.1302 104.534 37.7485 108.038 40.6487C111.845 43.8309 113.859 47.3152 113.859 50.719C113.859 57.6674 105.662 64.6965 92.4493 69.067C83.1042 72.1686 70.617 73.8805 57.3042 73.8805ZM57.3042 32.5925C44.2733 32.5925 31.3833 34.4857 21.9576 37.7686C10.6386 41.7162 5.56321 47.1138 5.56321 50.719C5.56321 54.4651 11.0213 60.3663 22.9848 64.4548C31.766 67.4557 43.6489 69.0468 57.3042 69.0468C70.1135 69.0468 82.0568 67.4356 90.9388 64.4749C103.366 60.3461 109.045 54.445 109.045 50.719C109.045 48.8056 107.595 46.5499 104.957 44.3546C101.915 41.8169 97.4845 39.5007 92.1875 37.6679C82.6611 34.4052 70.2747 32.5925 57.3042 32.5925Z" fill="#00D8FF"/>
<path d="M34.3641 101.111C32.3098 101.111 30.4972 100.668 28.9665 99.7814C23.1861 96.4381 21.1721 86.8109 23.6091 74.0217C25.603 63.5285 30.477 51.2025 37.3449 39.2995C44.092 27.618 52.1885 17.3463 60.1843 10.3978C64.8569 6.32945 69.5899 3.34866 73.8597 1.7777C78.5121 0.0657537 82.5402 0.0657541 85.4807 1.75756C91.5027 5.22172 93.4967 15.8559 90.677 29.4709C88.6831 39.1383 83.9299 50.7997 77.2835 62.3402C70.1941 74.6259 62.5407 84.535 55.1491 91.0002C50.3557 95.1894 45.4213 98.2507 40.9098 99.8418C38.5534 100.688 36.3379 101.111 34.3641 101.111ZM39.4194 40.5079L41.514 41.7163C35.0086 52.995 30.195 65.0995 28.3421 74.928C26.1065 86.7102 28.2616 93.7997 31.3632 95.5922C32.1285 96.0353 33.1356 96.277 34.3641 96.277C38.3721 96.277 44.6761 93.7393 51.9669 87.3749C58.9557 81.2723 66.2667 71.766 73.0943 59.9435C79.499 48.8461 84.0508 37.6882 85.944 28.5243C88.5824 15.6948 86.3065 7.83999 83.0639 5.96692C81.4123 5.02032 78.7337 5.14116 75.5112 6.32945C71.7852 7.69901 67.5758 10.3777 63.3463 14.0634C55.7533 20.6695 47.9993 30.4981 41.514 41.7365L39.4194 40.5079Z" fill="#00D8FF"/>
<path d="M80.2442 101.171C74.7659 101.171 67.8175 97.8683 60.5669 91.6247C52.4704 84.6561 44.2329 74.2838 37.3449 62.3807C30.5777 50.6992 25.744 38.5545 23.7098 28.1419C22.5215 22.0594 22.2999 16.4805 23.0653 11.9892C23.9112 7.09504 25.9051 3.61073 28.8657 1.89879C34.8676 -1.58552 45.0788 1.99949 55.4713 11.244C62.8428 17.7896 70.5767 27.7391 77.2432 39.2594C84.3528 51.5451 89.1261 63.1259 91.0193 72.7531C92.2479 78.9966 92.4493 84.7971 91.5833 89.51C90.6568 94.525 88.5622 98.0898 85.5411 99.8421C84.0306 100.728 82.2381 101.171 80.2442 101.171ZM41.5341 59.9639C48.0596 71.2425 56.1561 81.4538 63.7289 87.9592C72.8123 95.7737 80.0226 97.4655 83.1444 95.6528C86.387 93.7798 88.7636 86.1062 86.3064 73.6997C84.4938 64.5962 79.9219 53.5189 73.0741 41.6964C66.6493 30.599 59.2578 21.0725 52.269 14.8693C42.4807 6.16858 34.5454 4.21495 31.3027 6.08801C29.6512 7.03462 28.4227 9.43134 27.8386 12.8149C27.1739 16.7222 27.3754 21.717 28.4629 27.2154C30.3964 37.1044 35.0287 48.7255 41.5341 59.9639Z" fill="#00D8FF"/>
</svg>
