<svg width="570" height="473" viewBox="0 0 570 473" fill="none" xmlns="http://www.w3.org/2000/svg">
<path d="M447 222.5C477.5 402.5 292.888 474.5 270 445C180 329 255.131 324.411 93.0002 222.5C40.5 189.5 172.246 0 270 0C317.5 -1.45534e-10 440.392 183.5 447 222.5Z" fill="#FFF5DE"/>
<path d="M330.375 245.212C325.088 238.78 315.996 235.716 307.914 237.669C299.832 239.622 293.131 246.492 291.346 254.607C295.522 257.2 301.752 258.109 306.668 257.873C311.585 257.638 316.4 256.392 321.182 255.18C323.808 254.506 326.502 253.799 328.657 252.149C330.812 250.499 332.092 247.3 330.375 245.212Z" fill="#FFDE9C"/>
<path d="M38.6564 472.04C37.2758 472.04 35.9288 471.804 34.6829 471.4C29.5981 469.75 24.8837 464.564 26.5337 457.122L68.66 269.659L72.2631 270.467L30.1369 457.931C28.9583 463.15 32.1236 466.686 35.7941 467.865C39.4646 469.043 44.1116 468.067 46.2331 463.15L129.576 269.322L132.977 270.77L49.6341 464.598C47.378 469.952 42.8993 472.04 38.6564 472.04Z" fill="#E0E0E0"/>
<path d="M518.512 472.04C514.269 472.04 509.79 469.952 507.534 464.632L424.191 270.804L427.592 269.356L510.935 463.184C513.057 468.1 517.704 469.11 521.374 467.898C525.045 466.72 528.21 463.184 527.031 457.964L484.905 270.501L488.508 269.693L530.635 457.156C532.318 464.598 527.604 469.784 522.485 471.434C521.239 471.838 519.892 472.04 518.512 472.04Z" fill="#E0E0E0"/>
<path d="M467.192 257.772C432.946 263.295 397.453 269.323 368.898 288.955C344.114 305.994 326.805 331.822 312.662 358.39C298.519 384.926 273.87 417.488 269.694 449.748C276.126 452.981 282.928 450.691 289.36 449.748C319.161 409.407 352.802 373.106 391.19 340.813C389.809 329.431 396.208 323.201 405.266 316.163C414.324 309.125 425.336 305.186 435.876 300.64C446.416 296.094 457.023 290.504 463.859 281.311C470.695 272.118 474.264 266.797 467.192 257.772Z" fill="#7A5B89"/>
<path d="M541.612 163.552C543.734 161.094 546.192 158.636 549.357 158.131C553.971 157.356 558.348 161.229 559.863 165.64C561.379 170.085 560.773 174.934 560.2 179.581C555.284 218.744 553.533 258.345 554.947 297.777C555.418 310.809 555.856 325.154 547.741 335.391C542.286 342.26 533.699 346.099 525.044 347.547C516.39 348.995 507.534 348.254 498.779 347.547C482.649 346.234 466.485 344.887 450.355 343.574C443.722 343.035 436.111 341.89 432.71 336.165C429.747 331.114 431.599 324.346 435.404 319.901C439.209 315.456 444.563 312.661 449.648 309.698C475.577 294.511 496.354 271.141 509.319 244.134C522.586 216.589 521.004 187.494 541.612 163.552Z" fill="#A53169"/>
<path d="M467.395 140.183C448.436 158.67 411.597 204.096 405.973 229.991C380.044 233.325 353.273 237.366 327.748 242.99C326.3 245.616 325.761 249.354 326.334 252.284H432.475C443.722 239.892 453.117 225.277 457.562 209.113C461.973 192.95 479.989 151.228 467.395 140.183Z" fill="#CF7D28"/>
<path d="M445.843 302.626C439.512 274.576 433.148 246.121 434.461 217.397C435.775 188.673 445.776 159.141 467.394 140.182C486.925 138.162 508.443 151.396 519.151 167.862C529.86 184.295 533.867 204.163 536.628 223.593C541.713 259.692 542.959 297.811 528.277 331.182C496.893 331.855 469.381 323.369 445.843 302.626Z" fill="#FF9A31"/>
<path d="M529.018 325.356C498.476 337.041 464.97 340.981 432.542 336.704C427.726 374.52 419.847 412.841 410.182 449.715H390.517C385.634 416.95 380.414 382.265 375.498 349.501C372.939 332.259 370.986 312.627 382.199 299.293C389.978 290.066 402.303 286.227 414.055 283.398C438.536 277.505 463.556 273.97 488.71 272.858C506.288 286.867 521.374 304.276 529.018 325.356Z" fill="#A880BC"/>
<path d="M440.489 278.011C440.489 278.011 496.893 336.098 512.955 330.744C529.018 325.39 528.277 331.182 528.277 331.182L530.937 304.613L529.018 278.044L506.153 270.131L498.947 252.317L462.242 269.727L440.489 278.011Z" fill="#FF9A31"/>
<path d="M395.467 244.673C390.483 239.757 382.637 237.972 376.037 240.295C369.437 242.619 364.419 248.916 363.645 255.887C367.517 258.479 372.501 258.547 377.182 258.378C381.829 258.21 386.375 256.897 390.685 255.146C392.436 254.439 394.221 253.597 395.5 252.182C396.746 250.768 396.814 245.986 395.467 244.673Z" fill="#FFDE9C"/>
<path d="M510.464 161.498C491.505 179.985 478.103 204.096 472.446 229.991C446.517 233.325 419.746 237.366 394.221 242.989C392.773 245.616 392.234 249.354 392.806 252.283H498.947C510.194 239.891 519.589 225.277 524.034 209.113C528.479 192.95 523.058 172.543 510.464 161.498Z" fill="#FF9A31"/>
<path d="M459.717 129.845C461.064 138.398 462.411 146.951 463.758 155.504C471.469 155.471 480.09 150.958 484.13 142.472C483.524 135.704 481.167 129.878 478.339 124.12C471.907 124.423 465.576 126.275 459.717 129.845Z" fill="#FFCD69"/>
<path d="M449.716 146.648C440.051 130.148 436.718 110.044 440.523 91.2877C442.577 81.1518 459.582 81.6569 469.348 85.0917C479.113 88.5264 486.42 97.8205 487.936 108.091C489.485 118.328 485.478 129.104 478.036 136.31C470.594 143.516 460.054 147.22 449.716 146.648Z" fill="#FFDE9C"/>
<path d="M479.719 106.374C481.1 113.277 480.561 120.584 478.204 127.218C477.328 129.676 476.183 132.168 476.318 134.795C476.486 137.421 476.722 138.532 479.349 138.364C482.75 138.162 486.218 137.96 489.485 136.849C492.717 135.738 495.748 133.549 497.095 130.383C498.442 127.252 497.937 123.682 498.004 120.281C498.072 115.365 499.317 110.549 500.126 105.667C500.934 100.818 501.27 95.6991 499.62 91.0521C497.97 86.405 493.256 81.4213 488.34 81.0845C488.474 74.8885 485.578 68.6925 480.729 64.82C475.88 60.9811 469.179 59.5331 463.151 61.0821C457.326 62.5975 452.174 66.6721 446.146 66.7394C439.479 66.8404 433.922 62.025 428.332 58.3546C419.847 52.7983 409.711 49.4646 399.575 50.0707C389.439 50.6769 379.404 55.4586 373.41 63.6077C367.416 71.7905 365.968 83.3744 370.75 92.3654C375.498 101.323 386.644 106.711 396.41 103.916C402.033 102.299 406.646 98.4267 411.765 95.5307C416.85 92.6348 423.248 90.7827 428.434 93.4766C432.272 95.4634 434.529 99.5042 437.492 102.67C440.455 105.835 445.338 108.226 449.008 105.902C453.016 103.343 459.144 103.41 463.69 104.757C468.236 106.104 472.008 110.684 471.2 115.365C471.233 113.277 471.233 110.751 471.94 108.798C472.648 106.845 474.197 105.06 476.251 104.623C478.271 104.185 479.315 104.32 479.719 106.374Z" fill="#FFC53F"/>
<path d="M273.166 252.418H226.056L257.474 193.489H304.584L273.166 252.418Z" fill="#969696"/>
<path d="M353 208L208.407 226.712C203.734 227.033 199.354 223.528 197.706 218.151L160.509 96.887C158.071 88.9031 162.523 80.5133 169.464 80.0365L311.5 91.5C321.5 91.5 324.5 93 328 104.5L357 194.5C359.465 202.482 359.941 207.523 353 208Z" fill="#C9C9C9"/>
<path d="M12.4579 472.041C11.0773 472.041 9.73033 471.805 8.48439 471.401C3.3996 469.751 -1.31477 464.565 0.335261 457.123L42.4615 269.66L46.0646 270.468L3.97205 457.965C2.79346 463.184 5.95882 466.72 9.62929 467.899C13.2998 469.077 17.9468 468.101 20.0682 463.184L103.412 269.356L106.813 270.804L23.4693 464.632C21.1795 469.953 16.7009 472.041 12.4579 472.041Z" fill="#636363"/>
<path d="M492.313 472.041C488.07 472.041 483.592 469.953 481.336 464.632L397.959 270.804L401.36 269.356L484.703 463.184C486.824 468.101 491.472 469.111 495.142 467.899C498.812 466.72 501.978 463.184 500.799 457.965L458.673 270.501L462.276 269.693L504.402 457.157C506.086 464.599 501.372 469.784 496.253 471.434C495.041 471.838 493.694 472.041 492.313 472.041Z" fill="#636363"/>
<path d="M523.343 348.148L526.837 346.919L570 469.594L566.506 470.823L523.343 348.148Z" fill="#A53169"/>
<path d="M504.416 348.026L507.992 347.061L541.089 469.73L537.513 470.695L504.416 348.026Z" fill="#A53169"/>
<path d="M404.437 469.651L447.621 342.99L451.127 344.185L407.943 470.847L404.437 469.651Z" fill="#A53169"/>
<path d="M433.362 469.767L466.45 343.132L470.034 344.068L436.946 470.703L433.362 469.767Z" fill="#A53169"/>
<path d="M459.885 101.727C466.957 107.99 469.909 125.105 469 134.5C470 134.5 473.49 139.438 474.5 139C473.557 135.229 471.738 117.991 471.536 114.119C471.334 110.246 471.94 106.206 473.927 102.872C472.311 100.818 469.684 99.5718 467.091 99.3697C464.465 99.1677 461.771 99.9759 459.885 101.727Z" fill="#FFC53F"/>
<path d="M450.58 154.164C465 144.5 473.5 141 474.5 139C474.5 139 469.875 135.102 469.148 134.275C465.848 136.33 462.424 137.893 458.801 139.273C455.177 140.653 450.283 141.368 446.5 140.5C445.041 142.669 445.523 145.498 446.126 148.028C446.739 150.59 448.335 152.906 450.58 154.164Z" fill="#FFC53F"/>
<path d="M390.517 449.748L348.491 470.222H417.961L410.216 449.748H390.517Z" fill="#FF9A31"/>
<path d="M269.694 449.748L227.669 470.222H297.105L289.36 449.748H269.694Z" fill="#FF9A31"/>
<path d="M14.7815 251.105H506.153V270.063H14.7815V251.105Z" fill="#E0B5F5"/>
<path d="M343.123 178.364L319 102L168.733 91.1123L198.554 188.297L343.123 178.364Z" fill="#6C9BE6"/>
</svg>
