<svg width="193" height="102" viewBox="0 0 193 102" fill="none" xmlns="http://www.w3.org/2000/svg">
<path d="M3.00936 8.86212L42.8063 96.4151C44.3366 99.7817 49.0491 99.9678 50.84 96.7323L67.6528 66.3579L84.4656 96.7323C86.2565 99.9678 90.9691 99.7818 92.4994 96.4151L101.21 77.2516C104.53 78.399 108.094 79.0217 111.799 79.0217C129.612 79.0217 144.072 64.6478 144.072 46.8913C144.072 34.9011 137.476 24.4549 127.717 18.9354L132.296 8.86211C133.651 5.88266 131.472 2.5 128.2 2.5H7.10601C3.8332 2.5 1.65507 5.88268 3.00936 8.86212ZM121.113 21.3832L98.6988 70.6934C90.2447 66.079 84.526 57.144 84.526 46.8913C84.526 31.9189 96.7253 19.7609 111.799 19.7609C115.074 19.7609 118.209 20.3339 121.113 21.3832ZM175.68 47.0865C183.854 47.0865 190.5 40.4892 190.5 32.3256C190.5 24.1621 183.854 17.5648 175.68 17.5648C167.507 17.5648 160.86 24.1621 160.86 32.3256C160.86 40.4891 167.507 47.0865 175.68 47.0865Z" stroke="#4FD4F5" stroke-width="5"/>
</svg>
